<?xml version="1.0" encoding="utf-8"?>
<!-- Generator: Adobe Illustrator 25.1.0, SVG Export Plug-In . SVG Version: 6.00 Build 0)  -->
<svg version="1.1" id="Layer_1" xmlns="http://www.w3.org/2000/svg" xmlns:xlink="http://www.w3.org/1999/xlink" x="0px" y="0px"
	 viewBox="0 0 450 450" style="enable-background:new 0 0 450 450;" xml:space="preserve">
<style type="text/css">
	.st0{fill:#365072;}
</style>
<g>
	<path class="st0" d="M364.49,299.03H351.2v-45.47c0-2.88-2.33-5.21-5.21-5.21h-6.51c-3.63-60.79-70.28-77.23-70.97-77.4
		c-1.86-0.44-3.83,0.18-5.1,1.62c-1.27,1.43-1.66,3.45-0.99,5.25c0.06,0.16,5.71,15.95-2.52,27.38
		c-6.08,8.43-18.45,12.7-36.54,12.74v-93.93c0-2.88-2.33-5.21-5.21-5.21h-20.58V87.28c0-2.88-2.33-5.21-5.21-5.21h-18.84V23.64
		v-1.89h28.86l12.96,12.96c1.02,1.02,2.35,1.53,3.69,1.53c1.33,0,2.67-0.51,3.69-1.53c2.03-2.04,2.03-5.33,0-7.37l-14.49-14.49
		c-0.98-0.98-2.3-1.53-3.69-1.53h-36.23h-32.95h-15.82c-0.35,0-0.69,0.04-1.02,0.1c-0.12,0.02-0.22,0.07-0.34,0.1
		c-0.21,0.06-0.42,0.11-0.62,0.19c-0.13,0.05-0.24,0.12-0.36,0.18c-0.17,0.09-0.35,0.17-0.51,0.28c-0.12,0.08-0.22,0.17-0.33,0.26
		c-0.15,0.11-0.3,0.23-0.43,0.36c-0.1,0.1-0.19,0.21-0.29,0.32c-0.12,0.14-0.24,0.27-0.35,0.42c-0.09,0.12-0.16,0.25-0.23,0.38
		c-0.09,0.15-0.18,0.31-0.26,0.47c-0.06,0.14-0.11,0.29-0.16,0.44c-0.06,0.17-0.12,0.33-0.16,0.51c-0.04,0.15-0.06,0.32-0.08,0.48
		c-0.02,0.12-0.05,0.23-0.06,0.35c0,0.07,0.01,0.13,0,0.2c0,0.06-0.02,0.12-0.02,0.18c0,0.1,0.02,0.19,0.03,0.28
		c0.01,0.19,0.03,0.38,0.06,0.57c0.02,0.15,0.06,0.29,0.09,0.44c0.05,0.18,0.1,0.36,0.16,0.53c0.05,0.14,0.11,0.28,0.17,0.41
		c0.08,0.16,0.17,0.32,0.26,0.48c0.08,0.12,0.15,0.25,0.24,0.36c0.11,0.15,0.23,0.29,0.35,0.42c0.1,0.11,0.19,0.21,0.3,0.31
		c0.13,0.13,0.28,0.24,0.43,0.35c0.11,0.09,0.23,0.17,0.35,0.25c0.15,0.1,0.31,0.18,0.48,0.26c0.14,0.07,0.27,0.14,0.42,0.19
		c0.16,0.06,0.33,0.11,0.5,0.16c0.16,0.04,0.31,0.09,0.48,0.12c0.05,0.01,0.1,0.03,0.15,0.04l11.36,1.66v58.71H111.3
		c-2.88,0-5.21,2.33-5.21,5.21v31.53H85.51c-2.88,0-5.21,2.33-5.21,5.21v309.44c0,2.88,2.33,5.21,5.21,5.21h81.26h51.38h104.64
		c25.86,0,46.9-21.04,46.9-46.9v-87.52C369.7,301.37,367.36,299.03,364.49,299.03z M359.27,391.77c0,20.12-16.36,36.48-36.48,36.48
		h-99.43h-5.21h-5.21h-46.17c-20.12,0-36.48-16.37-36.48-36.48v-82.31h13.29h69.37h5.21h5.21h122.63h13.28V391.77z M90.73,428.25
		V129.23h20.57h81.06h20.58v88.58c-25.71,0.07-44.2,5.54-54.95,16.3c-5.17,5.18-7.4,10.45-8.36,14.24h-6.05
		c-2.88,0-5.21,2.33-5.21,5.21v45.47h-13.29c-2.88,0-5.21,2.33-5.21,5.21v87.52c0,14.72,6.82,27.88,17.47,36.48H90.73z
		 M116.51,92.49h18.85h32.95h18.84v26.32h-70.64V92.49z M140.57,21.75h22.53v1.89v58.43h-22.53V21.75z M268.36,211.3
		c6.69-9.28,6.98-20.08,6.01-27.63c16.48,6.01,51.9,23.62,54.68,64.68H223.37h-5.21h-5.21h-52.33c0.9-2.1,2.43-4.62,5.05-7.16
		c6.18-5.99,19.34-12.86,47.28-12.96c1.68-0.01,3.42,0.02,5.21,0.06c0.31,0.01,0.61,0.01,0.93,0.02c1.46,0.04,2.88,0.06,4.28,0.06
		C245.08,228.32,260.23,222.59,268.36,211.3z M340.78,299.03H223.37h-5.21h-5.21h-64.15v-40.26h5.34h58.81h5.21h5.21h111.07h6.34
		V299.03z"/>
</g>
</svg>
