<?xml version="1.0" encoding="utf-8"?>
<!-- Generator: Adobe Illustrator 25.1.0, SVG Export Plug-In . SVG Version: 6.00 Build 0)  -->
<svg version="1.1" id="Layer_1" xmlns="http://www.w3.org/2000/svg" xmlns:xlink="http://www.w3.org/1999/xlink" x="0px" y="0px"
	 viewBox="0 0 450 450" style="enable-background:new 0 0 450 450;" xml:space="preserve">
<style type="text/css">
	.st0{fill:#365072;}
</style>
<g>
	<path class="st0" d="M312.14,286.15c-12.24,6.97-27.27,17.65-42.33,30.06c-18.56,15.3-32.08,32.12-40.14,43.49v-69.72
		c1,0.18,2.04,0.28,3.15,0.28c1.88,0,3.91-0.27,6.06-0.8c6.02-1.49,12.61-5.02,18.55-9.92c13.69-11.28,19.23-25.6,12.88-33.3
		c-3.41-4.15-9.32-5.44-16.6-3.63c-1.39,0.34-2.81,0.82-4.25,1.38c2.66-1.52,5.33-3.25,7.97-5.42c13.69-11.29,19.23-25.6,12.88-33.3
		c-4.15-5.04-12.08-5.55-20.88-2.19c2.72-1.55,5.42-3.36,8-5.48c13.69-11.28,19.23-25.6,12.88-33.3c-3.41-4.15-9.32-5.43-16.6-3.63
		c-1.39,0.34-2.81,0.82-4.25,1.38c2.66-1.52,5.33-3.25,7.97-5.42c13.69-11.29,19.23-25.6,12.88-33.3c-4.22-5.12-12.34-5.55-21.32-2
		c2.82-1.57,5.65-3.37,8.44-5.67c13.69-11.28,19.23-25.6,12.88-33.3c-3.41-4.15-9.32-5.44-16.6-3.63
		c-3.75,0.93-7.71,2.72-11.61,5.07c0.02-0.76,0.05-1.51,0.05-2.27c0-17.7-6.01-35.62-17.51-35.62c-11.49,0-17.5,17.92-17.5,35.62
		c0,0.76,0.03,1.51,0.05,2.27c-3.9-2.35-7.86-4.14-11.61-5.07c-7.26-1.82-13.18-0.53-16.6,3.63c-6.35,7.7-0.8,22.01,12.88,33.3
		c2.79,2.3,5.62,4.1,8.44,5.67c-8.98-3.55-17.1-3.12-21.32,2c-6.35,7.7-0.8,22.01,12.88,33.3c2.63,2.17,5.3,3.9,7.97,5.42
		c-1.44-0.55-2.86-1.03-4.25-1.38c-7.26-1.81-13.18-0.53-16.6,3.63c-6.35,7.7-0.8,22.01,12.88,33.3c2.58,2.13,5.29,3.94,8.02,5.49
		c-8.81-3.37-16.75-2.87-20.9,2.17c-6.35,7.7-0.8,22.01,12.88,33.3c2.63,2.17,5.3,3.9,7.97,5.42c-1.44-0.55-2.86-1.03-4.25-1.38
		c-7.26-1.81-13.18-0.53-16.6,3.63c-6.35,7.7-0.8,22.01,12.88,33.3c5.95,4.9,12.53,8.42,18.55,9.92c2.15,0.53,4.18,0.8,6.06,0.8
		c1.1,0,2.15-0.1,3.14-0.28v38.67c-8.14-11.34-21.4-27.62-39.42-42.47c-15.06-12.41-30.09-23.09-42.33-30.06
		c-15.62-8.9-24.08-10.51-28.26-5.44c-2.61,3.17-6.84,17.04,48.33,62.51c25.66,21.14,52.36,32.31,61.68,35.83v50.02
		c0,2.77,2.25,5.03,5.03,5.03c2.77,0,5.03-2.25,5.03-5.03v-19.71c8.56-3.17,36.03-14.37,62.4-36.1
		c55.17-45.47,50.94-59.35,48.33-62.51C336.21,275.63,327.76,277.25,312.14,286.15z M285.67,335.47
		c-17.11,14.1-35.06,23.68-47.2,29.25c7.79-10.85,20.61-26.64,37.73-40.75c27.49-22.66,47.33-33.41,54.93-35.62
		C327.51,295.38,313.16,312.8,285.67,335.47z M219.25,279.44c-0.61,0.74-2.87,1.14-6.42,0.27c-4.52-1.12-9.83-4.01-14.58-7.92
		c-9.92-8.18-13.14-17.17-11.52-19.14c0.62-0.74,2.88-1.14,6.42-0.27c4.52,1.12,9.83,4.01,14.58,7.92
		c4.74,3.91,8.59,8.58,10.55,12.8C219.82,276.39,219.86,278.69,219.25,279.44z M186.74,211.67c1.63-1.95,11.07-0.53,20.99,7.66
		c8.48,6.99,12.03,14.53,11.88,17.82c0,0.1,0.01,0.22,0,0.31c-0.05,0.42-0.17,0.77-0.36,1.01c-1.62,1.99-11.06,0.53-20.99-7.65
		C188.33,222.64,185.11,213.65,186.74,211.67z M186.74,170.7c0.62-0.74,2.88-1.13,6.42-0.27c4.52,1.12,9.83,4.01,14.58,7.92
		c4.74,3.91,8.59,8.58,10.55,12.8c1.53,3.3,1.58,5.6,0.97,6.35c-0.61,0.74-2.87,1.14-6.42,0.27c-4.52-1.12-9.83-4.01-14.58-7.92
		C188.33,181.67,185.11,172.67,186.74,170.7z M186.74,129.73c1.63-1.95,11.07-0.52,20.99,7.66c8.48,6.99,12.03,14.53,11.88,17.82
		c0,0.1,0.01,0.22,0,0.31c-0.05,0.42-0.17,0.77-0.36,1.01c-1.62,1.98-11.06,0.53-20.99-7.65
		C188.33,140.7,185.11,131.71,186.74,129.73z M186.74,88.77c0.62-0.74,2.88-1.13,6.42-0.27c4.52,1.12,9.83,4.01,14.58,7.92
		c0.4,0.33,0.72,0.67,1.1,1c7.63,6.7,10.92,13.69,10.78,16.82c0,0.1,0.01,0.22,0,0.32c-0.05,0.42-0.17,0.77-0.36,1.01
		c-0.02,0.02-0.06,0.03-0.08,0.05c-1.76,1.86-11.09,0.39-20.91-7.7C188.33,99.73,185.11,90.74,186.74,88.77z M241.55,96.42
		c4.74-3.9,10.06-6.79,14.58-7.92c1.43-0.35,2.65-0.5,3.63-0.5c1.46,0,2.42,0.32,2.79,0.76c1.63,1.97-1.6,10.96-11.52,19.14
		c-9.82,8.09-19.15,9.6-20.92,7.7c-0.02-0.02-0.06-0.03-0.08-0.05c-0.2-0.24-0.32-0.59-0.37-1.03c-0.01-0.06,0-0.14,0-0.2
		c-0.21-3.09,3.07-10.16,10.78-16.92C240.83,97.08,241.15,96.75,241.55,96.42z M262.55,129.73c1.63,1.98-1.6,10.97-11.52,19.15
		c-9.93,8.18-19.37,9.62-20.99,7.65c-0.2-0.24-0.32-0.59-0.37-1.02c-0.01-0.06,0-0.14,0-0.2c-0.22-3.24,3.33-10.87,11.89-17.92
		c7.38-6.09,14.49-8.44,18.32-8.44C261.2,128.95,262.13,129.22,262.55,129.73z M262.55,170.7c1.63,1.97-1.6,10.96-11.52,19.14
		c-4.74,3.91-10.06,6.79-14.58,7.92c-3.54,0.86-5.81,0.47-6.42-0.27c-0.61-0.74-0.57-3.05,0.97-6.35c1.96-4.22,5.81-8.89,10.55-12.8
		c4.74-3.9,10.06-6.79,14.58-7.92c1.43-0.35,2.65-0.5,3.63-0.5C261.22,169.94,262.18,170.26,262.55,170.7z M262.55,211.67
		c1.63,1.98-1.6,10.97-11.52,19.15c-9.93,8.18-19.37,9.63-20.99,7.65c-0.2-0.24-0.32-0.59-0.37-1.02c-0.01-0.06,0-0.14,0-0.2
		c-0.22-3.24,3.33-10.87,11.89-17.92c7.38-6.09,14.49-8.44,18.32-8.44C261.2,210.88,262.13,211.16,262.55,211.67z M262.55,252.64
		c1.63,1.97-1.6,10.96-11.52,19.14c-4.74,3.91-10.06,6.79-14.58,7.92c-3.54,0.86-5.81,0.47-6.42-0.27
		c-0.61-0.74-0.57-3.05,0.97-6.35c1.96-4.22,5.81-8.89,10.55-12.8c4.74-3.9,10.06-6.79,14.58-7.92c1.43-0.35,2.65-0.5,3.63-0.5
		C261.22,251.88,262.18,252.2,262.55,252.64z M217.19,81.55c0-7.32,1.07-13.02,2.42-17.23c1.74-5.44,3.95-8.33,5.03-8.33
		c1.08,0,3.29,2.88,5.03,8.32c1.35,4.21,2.42,9.92,2.42,17.25c0,4.04-0.33,7.6-0.85,10.7c-0.55,0.54-1.07,1.07-1.57,1.62
		c-1.96,2.1-3.62,4.25-5.02,6.4c0,0,0,0,0,0c-1.41-2.15-3.06-4.3-5.03-6.4c-0.51-0.54-1.03-1.08-1.57-1.61
		C217.53,89.15,217.19,85.6,217.19,81.55z M235.16,252.53c-2,1.65-3.8,3.43-5.49,5.24v-8.81c1.01,0.18,2.07,0.27,3.18,0.27
		c3.19,0,6.77-0.85,10.48-2.28C240.55,248.52,237.79,250.36,235.16,252.53z M235.16,211.57c-2.04,1.68-3.83,3.43-5.49,5.22v-8.74
		c1,0.18,2.04,0.28,3.15,0.28c1.88,0,3.91-0.27,6.06-0.8c1.37-0.34,2.77-0.81,4.18-1.35C240.41,207.68,237.76,209.42,235.16,211.57z
		 M235.16,170.59c-2,1.65-3.8,3.43-5.49,5.24v-8.81c1.01,0.18,2.07,0.27,3.18,0.27c3.19,0,6.77-0.85,10.48-2.28
		C240.55,166.58,237.79,168.43,235.16,170.59z M235.16,129.63c-2.04,1.68-3.83,3.43-5.49,5.22v-8.78c1.01,0.18,2.07,0.27,3.18,0.27
		c3.22,0,6.84-0.86,10.59-2.32C240.67,125.56,237.89,127.37,235.16,129.63z M216.44,126.33c1.1,0,2.17-0.09,3.17-0.27v8.78
		c-1.66-1.78-3.45-3.53-5.49-5.21c-2.73-2.25-5.51-4.07-8.28-5.62C209.6,125.47,213.22,126.33,216.44,126.33z M216.44,167.3
		c1.11,0,2.17-0.09,3.17-0.27v8.8c-1.69-1.81-3.49-3.58-5.49-5.23c-2.63-2.17-5.39-4.01-8.17-5.58
		C209.67,166.45,213.25,167.3,216.44,167.3z M210.41,207.52c2.15,0.53,4.18,0.8,6.06,0.8c1.1,0,2.15-0.1,3.14-0.28v8.73
		c-1.66-1.78-3.45-3.53-5.49-5.21c-2.61-2.15-5.26-3.88-7.9-5.4C207.64,206.71,209.04,207.18,210.41,207.52z M216.44,249.23
		c1.11,0,2.17-0.09,3.17-0.27v8.8c-1.69-1.81-3.49-3.58-5.49-5.23c-2.63-2.17-5.39-4.01-8.17-5.58
		C209.67,248.39,213.25,249.23,216.44,249.23z M164.32,305.43c-27.49-22.66-41.83-40.09-45.46-47.12
		c7.6,2.21,27.44,12.97,54.93,35.62c17.11,14.1,29.93,29.89,37.72,40.74C199.38,329.1,181.44,319.53,164.32,305.43z"/>
</g>
</svg>
