<?xml version="1.0" encoding="utf-8"?>
<!-- Generator: Adobe Illustrator 25.1.0, SVG Export Plug-In . SVG Version: 6.00 Build 0)  -->
<svg version="1.1" id="Layer_1" xmlns="http://www.w3.org/2000/svg" xmlns:xlink="http://www.w3.org/1999/xlink" x="0px" y="0px"
	 viewBox="0 0 450 450" style="enable-background:new 0 0 450 450;" xml:space="preserve">
<style type="text/css">
	.st0{fill:#365072;}
</style>
<g>
	<path class="st0" d="M225,9C105.71,9,9,105.71,9,225c0,119.29,96.71,216,216,216c119.29,0,216-96.71,216-216
		C441,105.71,344.29,9,225,9z M225,414c-104.21,0-189-84.79-189-189S120.79,36,225,36s189,84.79,189,189S329.21,414,225,414z"/>
	<path class="st0" d="M238.78,117.44c-2.22-3.83-3.99-8.09-5.27-12.64l-5.26-18.72c-0.41-1.46-1.74-2.46-3.25-2.46
		s-2.84,1.01-3.25,2.46l-5.26,18.72c-1.28,4.55-3.05,8.81-5.27,12.65c-5.27,9.11-10.11,18.97-9.83,29.32l5.57,210.32
		c0.05,1.83,1.55,3.29,3.38,3.29h29.34c1.83,0,3.33-1.46,3.38-3.29l5.57-210.32C248.89,136.41,244.05,126.55,238.78,117.44z
		 M236.38,353.62h-22.77l-1.73-65.37h26.23L236.38,353.62z M211.71,281.49l-3.57-134.91c-0.23-8.67,4.15-17.5,8.92-25.76
		c2.5-4.33,4.5-9.11,5.93-14.2l2.01-7.16l2.01,7.16c1.43,5.1,3.43,9.88,5.93,14.2c4.77,8.25,9.16,17.08,8.93,25.76l-3.57,134.91
		H211.71z"/>
</g>
</svg>
