<?xml version="1.0" encoding="utf-8"?>
<!-- Generator: Adobe Illustrator 25.1.0, SVG Export Plug-In . SVG Version: 6.00 Build 0)  -->
<svg version="1.1" id="Layer_1" xmlns="http://www.w3.org/2000/svg" xmlns:xlink="http://www.w3.org/1999/xlink" x="0px" y="0px"
	 viewBox="0 0 450 450" style="enable-background:new 0 0 450 450;" xml:space="preserve">
<style type="text/css">
	.st0{fill:#365072;}
</style>
<g>
	<path class="st0" d="M258.18,79.28h-2.52l-7.47-28.77l5.84-22.47c1.05-4.03,0.19-8.24-2.37-11.53c-2.55-3.29-6.4-5.18-10.56-5.18
		h-32.2c-4.17,0-8.02,1.89-10.56,5.18c-2.55,3.3-3.41,7.5-2.37,11.53l5.84,22.47l-7.47,28.77h-2.52c-7.36,0-13.36,5.99-13.36,13.36
		v17.49v77.94v25.63v211.61c0,7.37,5.99,13.36,13.36,13.36h66.35c7.36,0,13.36-5.99,13.36-13.36V213.71v-25.63v-77.94V92.64
		C271.54,85.28,265.54,79.28,258.18,79.28z M261.11,425.31c0,1.62-1.32,2.94-2.94,2.94h-66.35c-1.62,0-2.94-1.32-2.94-2.94v-206.4
		h72.22V425.31z M188.89,92.64c0-1.62,1.32-2.94,2.94-2.94h6.55h53.26h6.55c1.62,0,2.94,1.32,2.94,2.94v12.28h-18.96h-34.3h-18.96
		V92.64z M212.24,51.83c0.22-0.86,0.22-1.76,0-2.62l-6.18-23.78c-0.32-1.21,0.19-2.11,0.52-2.54s1.07-1.14,2.32-1.14h32.2
		c1.25,0,1.99,0.71,2.32,1.14s0.84,1.32,0.52,2.54l-6.18,23.78c-0.22,0.86-0.22,1.76,0,2.62l7.13,27.46h-39.79L212.24,51.83z
		 M236.94,182.86h-23.88v-67.52h23.88V182.86z M247.36,115.34h13.75v67.52h-13.75V115.34z M202.64,182.86h-13.75v-67.52h13.75
		V182.86z M188.89,193.29h18.96h34.3h18.96v15.21h-72.22V193.29z"/>
	<path class="st0" d="M225,279.07c13.18,0,23.9-10.72,23.9-23.9c0-13.18-10.72-23.9-23.9-23.9c-13.18,0-23.9,10.72-23.9,23.9
		C201.1,268.35,211.82,279.07,225,279.07z M238.48,255.17c0,7.43-6.04,13.48-13.48,13.48s-13.48-6.05-13.48-13.48
		c0-7.43,6.05-13.48,13.48-13.48S238.48,247.74,238.48,255.17z"/>
</g>
</svg>
