<svg width="450" height="450" viewBox="0 0 450 450" fill="none" xmlns="http://www.w3.org/2000/svg">
<path d="M325.562 126.623C325.275 125.932 324.864 125.314 324.342 124.791L314.931 115.375H320.373C323.482 115.375 325.994 112.856 325.994 109.753C325.994 106.65 323.482 104.132 320.373 104.132H301.372H211.542L181.416 76.66C179.123 74.5688 175.57 74.7374 173.473 77.0254C171.382 79.3189 171.545 82.8773 173.839 84.9685L194.857 104.138H161.893C161.753 104.132 161.612 104.132 161.472 104.138H143.601C140.498 104.138 137.979 106.656 137.979 109.759C137.979 112.862 140.498 115.38 143.601 115.38H148.07L138.654 124.796C138.654 124.796 138.654 124.796 138.648 124.802L138.626 124.825C138.379 125.072 138.261 125.387 138.064 125.668C137.85 125.977 137.592 126.252 137.44 126.607C137.125 127.354 136.984 128.147 137.001 128.945V407.64C137.001 408.376 137.153 409.107 137.434 409.793C137.721 410.478 138.137 411.102 138.654 411.62L157.688 430.659C157.694 430.665 157.705 430.671 157.711 430.676C158.222 431.188 158.835 431.593 159.515 431.874C160.201 432.149 160.932 432.295 161.668 432.295H301.372C302.103 432.295 302.834 432.149 303.52 431.862C304.211 431.576 304.835 431.165 305.352 430.643L314.847 421.142C314.965 421.024 315.078 420.901 315.19 420.771L324.347 411.614C324.87 411.097 325.28 410.473 325.567 409.781C325.854 409.096 326 408.365 326 407.634V128.765C326 128.754 325.994 128.748 325.994 128.737C325.989 128.018 325.843 127.298 325.562 126.623ZM306.561 413.531L299.045 421.052H163.996L148.244 405.301V131.092L163.962 115.375H299.04L314.751 131.092V405.301L306.898 413.154C306.78 413.278 306.668 413.402 306.561 413.531Z" fill="#365072"/>
<path d="M216.179 49.351C222.199 49.351 227.079 44.4709 227.079 38.451C227.079 32.4311 222.199 27.551 216.179 27.551C210.159 27.551 205.279 32.4311 205.279 38.451C205.279 44.4709 210.159 49.351 216.179 49.351Z" fill="#365072"/>
<path d="M252.134 60.2903C258.149 60.2903 263.045 55.3997 263.045 49.3903C263.045 43.3754 258.149 38.4847 252.134 38.4847C246.13 38.4847 241.24 43.3754 241.24 49.3903C241.24 55.4053 246.13 60.2903 252.134 60.2903Z" fill="#365072"/>
<path d="M241.577 91.7142C247.592 91.7142 252.483 86.8235 252.483 80.8142C252.483 74.7993 247.592 69.9086 241.577 69.9086C235.568 69.9086 230.683 74.7993 230.683 80.8142C230.677 86.8235 235.568 91.7142 241.577 91.7142Z" fill="#365072"/>
</svg>
