<svg height='100px' width='100px'  fill="#365072" xmlns="http://www.w3.org/2000/svg" xmlns:xlink="http://www.w3.org/1999/xlink" version="1.0" x="0px" y="0px" viewBox="0 0 100 100" enable-background="new 0 0 100 100" xml:space="preserve"><g><path fill="#365072" d="M66.733,31.624c-0.051-0.123-0.124-0.233-0.217-0.326l-1.674-1.675h0.968c0.553,0,1-0.448,1-1s-0.447-1-1-1   H62.43H46.45l-5.359-4.887c-0.408-0.372-1.04-0.342-1.413,0.065c-0.372,0.408-0.343,1.041,0.065,1.413l3.739,3.41h-5.864   c-0.025-0.001-0.05-0.001-0.075,0h-3.179c-0.552,0-1,0.448-1,1s0.448,1,1,1h0.795l-1.675,1.675c0,0,0,0-0.001,0.001l-0.004,0.004   c-0.044,0.044-0.065,0.1-0.1,0.15c-0.038,0.055-0.084,0.104-0.111,0.167c-0.056,0.133-0.081,0.274-0.078,0.416v49.577l0,0   c0,0.131,0.027,0.261,0.077,0.383c0.051,0.122,0.125,0.233,0.217,0.325l3.386,3.387c0.001,0.001,0.003,0.002,0.004,0.003   c0.091,0.091,0.2,0.163,0.321,0.213C37.317,85.974,37.447,86,37.578,86H62.43c0.13,0,0.26-0.026,0.382-0.077   c0.123-0.051,0.234-0.124,0.326-0.217l1.689-1.69c0.021-0.021,0.041-0.043,0.061-0.066l1.629-1.629   c0.093-0.092,0.166-0.203,0.217-0.326c0.051-0.122,0.077-0.252,0.077-0.382V32.005c0-0.002-0.001-0.003-0.001-0.005   C66.809,31.872,66.783,31.744,66.733,31.624z M63.353,82.662L62.016,84H37.992l-2.802-2.802V32.419l2.796-2.796h24.029l2.795,2.796   v48.779l-1.397,1.397C63.392,82.617,63.372,82.639,63.353,82.662z"></path><circle fill="#365072" cx="47.275" cy="15.939" r="1.939"></circle><path fill="#365072" d="M53.671,19.824c1.07,0,1.941-0.87,1.941-1.939c0-1.07-0.871-1.94-1.941-1.94   c-1.068,0-1.938,0.87-1.938,1.94C51.733,18.955,52.603,19.824,53.671,19.824z"></path><path fill="#365072" d="M51.793,25.414c1.07,0,1.94-0.87,1.94-1.939c0-1.07-0.87-1.94-1.94-1.94c-1.069,0-1.938,0.87-1.938,1.94   C49.854,24.544,50.724,25.414,51.793,25.414z"></path></g></svg>
