<?xml version="1.0" encoding="utf-8"?>
<!-- Generator: Adobe Illustrator 25.1.0, SVG Export Plug-In . SVG Version: 6.00 Build 0)  -->
<svg version="1.1" id="Layer_1" xmlns="http://www.w3.org/2000/svg" xmlns:xlink="http://www.w3.org/1999/xlink" x="0px" y="0px"
	 viewBox="0 0 450 450" style="enable-background:new 0 0 450 450;" xml:space="preserve">
<style type="text/css">
	.st0{fill:#365072;}
</style>
<g>
	<path class="st0" d="M225,9C105.71,9,9,105.71,9,225c0,119.29,96.71,216,216,216c119.29,0,216-96.71,216-216
		C441,105.71,344.29,9,225,9z M225,414c-104.21,0-189-84.79-189-189S120.79,36,225,36s189,84.79,189,189S329.21,414,225,414z"/>
	<path class="st0" d="M246.48,130.64h-1.63l-4.84-18.63l3.78-14.55c0.68-2.61,0.12-5.33-1.53-7.47c-1.65-2.13-4.14-3.36-6.84-3.36
		h-20.85c-2.7,0-5.19,1.22-6.84,3.36c-1.65,2.14-2.21,4.86-1.53,7.47l3.78,14.55l-4.84,18.63h-1.63c-4.77,0-8.65,3.88-8.65,8.65
		v11.32v50.48v16.6v137.04c0,4.77,3.88,8.65,8.65,8.65h42.97c4.77,0,8.65-3.88,8.65-8.65V217.69v-16.6v-50.48v-11.32
		C255.14,134.52,251.25,130.64,246.48,130.64z M248.39,354.73c0,1.05-0.85,1.9-1.9,1.9h-42.97c-1.05,0-1.9-0.85-1.9-1.9V221.07
		h46.77V354.73z M201.61,139.29c0-1.05,0.85-1.9,1.9-1.9h4.24h34.49h4.24c1.05,0,1.9,0.85,1.9,1.9v7.95h-12.28h-22.22h-12.28V139.29
		z M216.74,112.86c0.14-0.56,0.14-1.14,0-1.7l-4-15.4c-0.21-0.79,0.12-1.37,0.34-1.64s0.69-0.74,1.5-0.74h20.85
		c0.81,0,1.29,0.46,1.5,0.74s0.54,0.86,0.34,1.64l-4,15.4c-0.14,0.56-0.14,1.14,0,1.7l4.62,17.78h-25.77L216.74,112.86z
		 M232.73,197.72h-15.47v-43.73h15.47V197.72z M239.48,153.99h8.9v43.73h-8.9V153.99z M210.52,197.72h-8.9v-43.73h8.9V197.72z
		 M201.61,204.47h12.28h22.22h12.28v9.85h-46.77V204.47z"/>
	<path class="st0" d="M225,260.02c8.53,0,15.48-6.94,15.48-15.48s-6.94-15.48-15.48-15.48c-8.54,0-15.48,6.94-15.48,15.48
		S216.46,260.02,225,260.02z M233.73,244.54c0,4.81-3.91,8.73-8.73,8.73s-8.73-3.92-8.73-8.73s3.92-8.73,8.73-8.73
		S233.73,239.73,233.73,244.54z"/>
</g>
</svg>
