<?xml version="1.0" encoding="utf-8"?>
<!-- Generator: Adobe Illustrator 25.1.0, SVG Export Plug-In . SVG Version: 6.00 Build 0)  -->
<svg version="1.1" id="Layer_1" xmlns="http://www.w3.org/2000/svg" xmlns:xlink="http://www.w3.org/1999/xlink" x="0px" y="0px"
	 viewBox="0 0 450 450" style="enable-background:new 0 0 450 450;" xml:space="preserve">
<style type="text/css">
	.st0{fill:#365072;}
</style>
<g>
	<path class="st0" d="M300.02,220.53l-21.79-18.25c-3.56-2.98-5.6-7.35-5.6-11.99v-11.97h9.79V116.4c0-8.62-7.01-15.63-15.63-15.63
		h-5.68V47.44c0-19.91-16.2-36.11-36.11-36.11c-19.91,0-36.11,16.2-36.11,36.11v53.33h-5.68c-8.62,0-15.63,7.01-15.63,15.63v61.92
		h9.74v11.98c0,4.63-2.04,9-5.59,11.98l-21.76,18.25c-5.92,4.96-9.31,12.24-9.31,19.97v151.27c0,25.86,21.04,46.9,46.9,46.9h74.89
		c25.86,0,46.9-21.04,46.9-46.9V240.51C309.35,232.78,305.95,225.49,300.02,220.53z M298.93,391.77c0,20.12-16.36,36.48-36.48,36.48
		h-74.89c-20.12,0-36.48-16.37-36.48-36.48V275.22h51.04v75.37L225,390.74l22.89-40.15v-75.37h51.04V391.77z M156.66,228.52
		l21.76-18.25c5.92-4.96,9.31-12.24,9.31-19.97v-11.98h14.37v86.48h-51.04v-24.3C151.07,235.87,153.11,231.5,156.66,228.52z
		 M188.89,111.19h72.22h5.68c2.87,0,5.21,2.34,5.21,5.21v51.5h-24.11h-45.78H178v-51.5c0-2.87,2.34-5.21,5.21-5.21H188.89z
		 M199.31,47.44c0-14.16,11.52-25.69,25.69-25.69s25.69,11.52,25.69,25.69v53.33h-51.38V47.44z M271.54,210.27l21.8,18.25
		c3.56,2.98,5.6,7.35,5.6,11.99v24.29h-51.04v-86.48h14.32v11.97C262.21,198.03,265.61,205.31,271.54,210.27z M212.53,275.22
		l24.93,0v72.6L225,369.69l-12.46-21.86V275.22z M212.53,264.8v-86.48h24.93v86.48L212.53,264.8z"/>
</g>
</svg>
