<?xml version="1.0" encoding="utf-8"?>
<!-- Generator: Adobe Illustrator 25.1.0, SVG Export Plug-In . SVG Version: 6.00 Build 0)  -->
<svg version="1.1" id="Layer_1" xmlns="http://www.w3.org/2000/svg" xmlns:xlink="http://www.w3.org/1999/xlink" x="0px" y="0px"
	 viewBox="0 0 450 450" style="enable-background:new 0 0 450 450;" xml:space="preserve">
<style type="text/css">
	.st0{fill:#365072;}
</style>
<g>
	<path class="st0" d="M225,9C105.71,9,9,105.71,9,225c0,119.29,96.71,216,216,216c119.29,0,216-96.71,216-216
		C441,105.71,344.29,9,225,9z M225,414c-104.21,0-189-84.79-189-189S120.79,36,225,36c104.21,0,189,84.79,189,189
		S329.21,414,225,414z"/>
	<path class="st0" d="M273.58,222.11l-14.11-11.82c-2.3-1.93-3.62-4.76-3.62-7.76v-7.75h6.34v-40.1c0-5.58-4.54-10.12-10.12-10.12
		h-3.68v-34.54c0-12.9-10.49-23.39-23.39-23.39c-12.89,0-23.38,10.49-23.38,23.39v34.54h-3.68c-5.58,0-10.12,4.54-10.12,10.12v40.1
		h6.31v7.76c0,3-1.32,5.83-3.62,7.76l-14.09,11.82c-3.83,3.21-6.03,7.93-6.03,12.93V333c0,16.75,13.63,30.38,30.38,30.38h48.5
		c16.75,0,30.38-13.63,30.38-30.38v-97.96C279.63,230.04,277.42,225.32,273.58,222.11z M272.88,333c0,13.03-10.6,23.63-23.62,23.63
		h-48.5c-13.03,0-23.62-10.6-23.62-23.62v-75.47h33.05v48.81l14.82,26l14.82-26v-48.81h33.05V333z M180.74,227.28l14.09-11.82
		c3.83-3.21,6.03-7.93,6.03-12.93v-7.76h9.31v56h-33.05v-15.74C177.12,232.04,178.44,229.21,180.74,227.28z M201.61,151.3h46.77
		h3.68c1.86,0,3.38,1.51,3.38,3.38v33.35h-15.62h-29.65h-15.62v-33.35c0-1.86,1.51-3.38,3.38-3.38H201.61z M208.36,110.01
		c0-9.17,7.46-16.64,16.63-16.64s16.64,7.46,16.64,16.64v34.54h-33.27V110.01z M255.14,215.46l14.12,11.82
		c2.3,1.93,3.62,4.76,3.62,7.76v15.73h-33.05v-56h9.28v7.75C249.1,207.53,251.3,212.25,255.14,215.46z M216.93,257.52l16.15,0v47.02
		L225,318.7l-8.07-14.16V257.52z M216.93,250.77v-56h16.15v56L216.93,250.77z"/>
</g>
</svg>
