<?xml version="1.0" encoding="utf-8"?>
<!-- Generator: Adobe Illustrator 25.1.0, SVG Export Plug-In . SVG Version: 6.00 Build 0)  -->
<svg version="1.1" id="Layer_1" xmlns="http://www.w3.org/2000/svg" xmlns:xlink="http://www.w3.org/1999/xlink" x="0px" y="0px"
	 viewBox="0 0 450 450" style="enable-background:new 0 0 450 450;" xml:space="preserve">
<style type="text/css">
	.st0{fill:#365072;}
</style>
<g>
	<path class="st0" d="M246.28,63.56c-3.42-5.92-6.16-12.49-8.14-19.53l-8.12-28.91c-0.63-2.25-2.68-3.8-5.02-3.8
		c-2.33,0-4.38,1.55-5.02,3.8l-8.12,28.91c-1.97,7.03-4.71,13.6-8.14,19.53c-8.14,14.07-15.61,29.3-15.18,45.27l8.6,324.77
		c0.08,2.82,2.39,5.07,5.21,5.07h45.31c2.82,0,5.13-2.25,5.21-5.07l8.6-324.77C261.89,92.84,254.42,77.62,246.28,63.56z
		 M242.58,428.25h-35.16l-2.67-100.95h40.5L242.58,428.25z M204.47,316.88l-5.51-208.32c-0.36-13.39,6.41-27.03,13.78-39.78
		c3.87-6.69,6.95-14.06,9.16-21.93L225,35.8l3.11,11.05c2.21,7.88,5.29,15.25,9.15,21.93c7.37,12.74,14.14,26.37,13.78,39.78
		l-5.52,208.32H204.47z"/>
</g>
</svg>
