<svg width="450" height="450" viewBox="0 0 450 450" fill="none" xmlns="http://www.w3.org/2000/svg">
<path d="M317.977 241.323L224.806 199.577L220.291 209.655L313.462 251.401L317.977 241.323Z" fill="#365072"/>
<path d="M189.143 305.579C172.469 305.579 157.56 296.275 150.244 281.294L93.3962 165.028C82.9157 143.604 91.8199 117.647 113.244 107.154C119.224 104.23 125.614 102.75 132.22 102.75C148.894 102.75 163.802 112.055 171.13 127.023L227.975 243.298C233.059 253.682 233.796 265.423 230.039 276.358C226.282 287.292 218.503 296.1 208.119 301.172C202.138 304.099 195.749 305.579 189.143 305.579ZM132.22 113.805C127.31 113.805 122.56 114.906 118.102 117.087C102.15 124.902 95.5229 144.221 103.326 160.173L160.174 276.439C165.625 287.599 176.719 294.53 189.143 294.53C194.052 294.53 198.802 293.429 203.26 291.248C210.988 287.47 216.785 280.906 219.58 272.778C222.374 264.629 221.836 255.887 218.045 248.159L161.197 131.881C155.746 120.733 144.643 113.805 132.22 113.805Z" fill="#365072"/>
<path d="M233.309 361.973C225.323 361.973 217.541 360.297 210.201 357.009C187.663 346.92 174.476 323.529 177.367 298.789L178.046 293.014L183.789 293.985C190.362 295.095 197.226 294.199 203.261 291.245C210.989 287.467 216.786 280.903 219.58 272.775C222.375 264.626 221.836 255.884 218.046 248.156L207.048 225.652L253.296 122.469C262.386 102.137 282.667 89 304.964 89C312.942 89 320.712 90.6725 328.055 93.9544C356.527 106.733 369.306 140.277 356.56 168.728L284.966 328.501C275.857 348.839 255.576 361.973 233.309 361.973ZM188.03 305.492C188.009 323.336 198.261 339.556 214.713 346.926C220.627 349.57 226.887 350.921 233.309 350.921C251.226 350.921 267.545 340.341 274.885 323.992L346.477 164.219C356.731 141.315 346.443 114.323 323.53 104.038C317.625 101.406 311.377 100.055 304.964 100.055C287.014 100.055 270.698 110.632 263.379 126.984L219.246 225.459L227.976 243.301C233.06 253.685 233.797 265.426 230.039 276.361C226.282 287.295 218.503 296.103 208.119 301.175C201.835 304.252 194.832 305.654 188.03 305.492Z" fill="#365072"/>
<path d="M197.02 192.555L192.164 182.627L124.367 215.789L129.223 225.717L197.02 192.555Z" fill="#365072"/>
</svg>
