<?xml version="1.0" encoding="utf-8"?>
<!-- Generator: Adobe Illustrator 25.1.0, SVG Export Plug-In . SVG Version: 6.00 Build 0)  -->
<svg version="1.1" id="Layer_1" xmlns="http://www.w3.org/2000/svg" xmlns:xlink="http://www.w3.org/1999/xlink" x="0px" y="0px"
	 viewBox="0 0 450 450" style="enable-background:new 0 0 450 450;" xml:space="preserve">
<style type="text/css">
	.st0{fill:#365072;}
</style>
<g>
	<path class="st0" d="M373.04,291.99c-13.16-5.86-27.83-7.8-42.9-7.08c14.31-17.19,23.8-31.34,24.72-32.72
		c1.14-1.71,1.17-3.93,0.07-5.67c-1.1-1.74-3.1-2.67-5.15-2.38c-10.23,1.47-20,4.49-29.21,8.58c5.31-16.51,7.73-31.38,7.54-41.61
		c-0.09-4.79-0.75-11.42-5.43-13.78c-2.46-1.24-5.32-0.92-7.83,0.89c-0.54,0.38-1.07,0.79-1.6,1.19c5.06-19.7,4.8-38.77,2.13-49.07
		c-0.88-3.37-2.52-7.96-6.72-8.94c-2.36-0.54-4.78,0.3-6.48,2.28c-4.92,5.7-8.83,13.07-11.95,21.22c-0.26-1.14-0.48-2.25-0.61-3.35
		c-0.43-3.46-1.61-6.52-2.76-9.49c-0.9-2.35-1.76-4.56-2.07-6.62c-0.34-2.23-0.33-4.64-0.32-7.19c0.01-3.07,0.02-6.25-0.57-9.5
		c-0.6-3.28-1.57-6.35-2.51-9.32c-0.75-2.35-1.45-4.58-1.92-6.76l-1.03-4.89c-0.81-3.86-1.6-7.66-2.55-11.36
		c-0.91-3.57-2.68-6.66-4.24-9.38c-1.19-2.09-2.33-4.05-2.88-5.89c-0.67-2.2-1.02-4.54-1.39-7.02c-0.46-3.07-0.93-6.25-2.06-9.36
		c-0.71-1.95-0.9-4.36-1.1-6.91c-0.26-3.35-0.52-6.82-2.02-10.09c-1.96-4.3-5.8-6.9-8.88-8.99c-1.74-1.18-3.54-2.4-4.15-3.37
		c-1.1-1.77-1.99-3.63-2.85-5.43c-1.6-3.34-3.26-6.79-6.18-9.48c-5.1-4.69-10.37-9.54-17.48-9.54c-6.11,0-12.5,2.91-18.49,8.41
		c-2.91,2.67-4.56,6.24-6.14,9.69c-0.88,1.92-1.8,3.89-2.91,5.68c-0.66,1.06-2.42,2.37-4.11,3.63c-2.94,2.18-6.59,4.9-8.51,9.12
		c-2.23,4.9-4.35,10.54-6.31,15.91c-1.12,3.07-1.77,6.3-2.4,9.43c-0.5,2.46-0.97,4.79-1.65,7.03c-1.09,3.62-2.02,7.44-2.92,11.13
		c-0.41,1.69-0.83,3.4-1.26,5.1c-0.92,3.6-0.46,7.24-0.05,10.45c0.32,2.5,0.62,4.87,0.23,6.68c-0.34,1.59-1.64,3.5-3.02,5.53
		c-1.9,2.8-4.05,5.98-4.76,9.86c-0.41,2.26-0.94,4.52-1.46,6.79c-0.71,3.09-1.44,6.28-1.95,9.56c-0.54,3.56,0.03,7.07,0.53,10.17
		c0.41,2.49,0.79,4.84,0.55,6.78c-0.28,2.24-0.9,4.56-1.55,7.01c-0.79,2.97-1.61,6.03-1.92,9.32c-0.34,3.59,0.35,7.05,0.97,10.1
		c0.49,2.44,0.96,4.74,0.83,6.69c-0.13,1.91-0.99,4.12-1.9,6.46c-1.15,2.95-2.45,6.3-2.58,9.95c-0.07,2.14-0.2,4.28-0.32,6.4
		c-0.15,2.57-0.27,5.12-0.33,7.66c-11.07-8.45-21.62-14.37-29.53-17.19c-4.18-1.49-10.16-3.08-13.82,0.29
		c-1.95,1.8-2.63,4.46-1.87,7.3c7.11,26.51,32.58,54.04,55.58,74.49c0.19,0.88,0.38,1.74,0.58,2.58
		c-28.74-9.03-59.79-12.28-85.22-0.97c-1.79,0.8-2.98,2.53-3.09,4.48c-0.1,1.96,0.9,3.8,2.59,4.79
		c3.61,2.09,68.96,39.68,123.3,52.23c0.93,1.1,2.22,1.91,3.77,2.3c4.81,1.2,10.12,1.75,15.82,1.75c0.15,0,0.31-0.01,0.47-0.01v76.31
		c0,2.88,2.33,5.21,5.21,5.21h17.26c2.88,0,5.21-2.33,5.21-5.21v-78.38c1.11-0.44,2.04-1.12,2.76-1.97
		c54.33-12.55,119.68-50.14,123.3-52.23c1.69-0.98,2.69-2.83,2.59-4.79C376.02,294.52,374.83,292.78,373.04,291.99z M279.33,333.91
		c-4.02,1.45-8.04,2.82-12.04,4.11c1.71-1.6,3.35-3.39,4.78-5.48c0.02-0.04,0.05-0.07,0.08-0.1c0.34-0.51,0.63-1.03,0.9-1.56
		c6.17-5.83,11.77-12.15,16.84-18.77c2.8-3.67,5.46-7.41,7.94-11.23c1.71-0.47,3.41-0.92,5.09-1.33c3.07-0.75,6.09-1.38,9.07-1.94
		c2.82-0.52,5.6-0.96,8.33-1.31c13.98-1.78,26.77-1.29,37.88,1.56C342.6,306.26,311.2,322.38,279.33,333.91z M180.03,337.14
		c-34.93-11.54-71.11-30.06-88.21-39.29c19.91-5.1,45.2-2.7,73.19,6.99c1.14,0.4,2.3,0.83,3.46,1.25c2.84,1.04,5.7,2.13,8.58,3.31
		c0.19,0.08,0.37,0.14,0.56,0.22c6.77,2.79,13.19,5.79,19.18,8.85c3.18,2.28,5.23,3.66,5.71,3.98c0.88,0.59,1.9,0.89,2.91,0.89
		c0.14,0,0.27-0.02,0.41-0.03c3.5,1.97,6.8,3.93,9.87,5.85c1.42,0.89,2.8,1.77,4.12,2.64c0.19,0.13,0.39,0.26,0.59,0.38
		c1.62,1.07,3.15,2.11,4.61,3.14c0.01,0,0.01,0.01,0.02,0.01c1.88,1.32,3.62,2.59,5.21,3.8c1.11,0.84,2.14,1.66,3.1,2.44
		c0.35,0.6,0.66,1.14,0.94,1.62c0.77,1.32,1.3,2.2,1.54,2.6c0.03,0.04,0.06,0.1,0.08,0.13c0.21,0.34,0.46,0.65,0.73,0.93
		c-2.06,0.2-4.18,0.31-6.39,0.31c-1.69,0-3.44-0.07-5.21-0.17c0,0-0.01,0-0.01,0c-1.7-0.1-3.43-0.26-5.2-0.45
		c-2.49-0.27-5.02-0.62-7.61-1.06c-1.98-0.34-3.99-0.73-6.02-1.16c-1.85-0.39-3.73-0.81-5.62-1.27c-3.69-0.89-7.44-1.9-11.23-3.01
		C186.25,339.14,183.15,338.17,180.03,337.14z M158.69,273.42c-17.43-16.68-34.36-36.53-41.15-55.57
		c6.8,2.38,19.88,9.71,33.71,21.24c2.41,2.01,4.85,4.14,7.28,6.41c1.66,1.55,3.31,3.16,4.96,4.82
		c14.38,14.53,27.83,33.38,34.07,55.77c-6.87-5.12-16.36-12.51-26.47-21.34c-3.2-2.79-6.46-5.73-9.72-8.79
		C160.47,275.11,159.58,274.27,158.69,273.42z M161.6,228.1c0-3.19,0.19-6.42,0.38-9.67c0.13-2.21,0.26-4.43,0.33-6.64
		c0.07-1.88,0.95-4.15,1.88-6.54c1.1-2.83,2.35-6.04,2.58-9.55c0.22-3.34-0.41-6.44-1.01-9.44c-0.52-2.57-1.01-4.99-0.81-7.04
		c0.23-2.43,0.9-4.95,1.62-7.63c0.71-2.68,1.46-5.46,1.82-8.41c0.43-3.42-0.12-6.77-0.6-9.73c-0.42-2.56-0.81-4.98-0.51-6.92
		c0.44-2.89,1.1-5.76,1.8-8.8c0.56-2.43,1.11-4.84,1.55-7.25c0.32-1.73,1.69-3.75,3.14-5.89c1.79-2.63,3.8-5.61,4.58-9.17
		c0.77-3.57,0.32-7.1-0.08-10.21c-0.32-2.51-0.62-4.87-0.19-6.55c0.45-1.74,0.87-3.49,1.29-5.21c0.88-3.62,1.75-7.18,2.77-10.58
		c0.82-2.71,1.36-5.38,1.88-7.97c0.58-2.87,1.13-5.59,1.98-7.93c1.89-5.16,3.91-10.58,6-15.15c0.81-1.78,2.97-3.38,5.25-5.08
		c2.48-1.84,5.04-3.75,6.74-6.49c1.46-2.34,2.56-4.73,3.52-6.83c1.27-2.74,2.36-5.11,3.73-6.37c3.98-3.65,8.04-5.66,11.44-5.66
		c3.04,0,6.63,3.3,10.42,6.79c1.44,1.33,2.55,3.63,3.83,6.31c0.94,1.96,2,4.18,3.41,6.43c1.77,2.85,4.5,4.7,7.14,6.5
		c2.21,1.5,4.5,3.05,5.25,4.69c0.72,1.59,0.91,4.01,1.11,6.57c0.23,2.99,0.49,6.38,1.7,9.67c0.77,2.13,1.15,4.66,1.55,7.34
		c0.41,2.74,0.83,5.57,1.71,8.49c0.9,2.97,2.38,5.56,3.81,8.06c1.35,2.35,2.62,4.58,3.18,6.78c0.91,3.56,1.67,7.21,2.44,10.91
		l1.05,4.98c0.58,2.65,1.39,5.21,2.17,7.69c0.88,2.78,1.71,5.42,2.19,8.06c0.42,2.29,0.41,4.86,0.4,7.58
		c-0.01,2.84-0.02,5.78,0.44,8.81c0.48,3.17,1.58,6.03,2.65,8.79c0.96,2.49,1.87,4.85,2.14,7.03c0.36,2.94,1.09,5.73,1.8,8.42
		c0.71,2.7,1.38,5.25,1.61,7.7c0.21,2.19-0.17,4.7-0.57,7.36c-0.45,2.94-0.9,5.98-0.7,9.17c0.08,1.21,0.12,2.42,0.17,3.62
		c0.1,2.43,0.18,4.86,0.24,7.28c0.04,1.81,0.09,3.61,0.15,5.42c0.11,3.09,0.68,5.99,1.24,8.79c0.29,1.46,0.56,2.87,0.76,4.23
		c0.16,1.13,0.28,2.23,0.28,3.28c0,1.64-0.16,3.29-0.39,4.98c-0.13,0.2-0.25,0.4-0.38,0.6c-1.86,2.93-3.66,5.93-5.4,8.98
		c-11.78,20.6-21,43.54-27.57,62.49c-0.12-9.93-1.2-19.75-3.02-29.26c-1.03-5.42-2.29-10.73-3.75-15.9
		c-9.24-32.86-26.05-60.12-38.65-72.29c-3.41-3.29-8.52-7.48-13.48-5.85c-2.62,0.87-4.42,3.11-4.93,6.17
		c-6.61,39.56,16.34,94.7,33.12,128.3c0.78,1.57,1.55,3.09,2.31,4.57c-0.76-0.48-1.53-0.96-2.31-1.44
		c-3.11-1.91-6.41-3.84-9.87-5.76c-5.87-32.72-26.87-60.53-48.32-79.63C161.6,232.05,161.6,230.06,161.6,228.1z M296.68,215.47
		c-1.05,1.24-2.08,2.51-3.1,3.81c-0.05-0.24-0.09-0.48-0.14-0.72c-0.5-2.51-0.97-4.87-1.05-7.11c-0.06-1.76-0.1-3.53-0.14-5.3
		c-0.05-2.1-0.11-4.21-0.19-6.32c2.49-15.56,6.72-32.15,13.92-43.72C307.78,167.52,307.56,192.92,296.68,215.47z M317.64,209.19
		c0.54,8.26-2.45,28.17-11,50.75c-1,2.63-2.08,5.31-3.24,8c-1.34,3.12-2.78,6.27-4.34,9.43c-2.4,4.87-5.06,9.76-8,14.59
		c-1.39,2.29-2.85,4.56-4.38,6.8c-1.69,2.49-3.45,4.95-5.3,7.37c-0.48,0.63-0.98,1.26-1.48,1.89c-2.27,2.88-4.66,5.69-7.17,8.43
		c-2.7,2.93-5.55,5.77-8.54,8.49c-3.78,3.44-7.78,6.7-12.04,9.7c0.1-0.36,0.22-0.75,0.33-1.11c1.42-4.86,3.23-10.77,5.41-17.4
		c0.57-1.71,1.15-3.45,1.76-5.25c0.18-0.53,0.38-1.08,0.56-1.62c0.76-2.21,1.56-4.47,2.4-6.78c0.87-2.4,1.78-4.85,2.73-7.34
		c3.95-10.38,8.57-21.4,13.84-32.17c2.36-4.83,4.85-9.6,7.46-14.24c1.05-1.85,2.12-3.68,3.2-5.48c1.31-2.17,2.64-4.32,4-6.41
		c3.52-5.39,7.22-10.45,11.11-15.05C308.99,217.04,313.22,212.77,317.64,209.19z M196.4,193.81c8.12,7.19,25.99,32.88,36.21,65.94
		c0.53,1.72,1.04,3.46,1.53,5.21c0.48,1.72,0.93,3.46,1.36,5.21c0.56,2.3,1.09,4.61,1.57,6.96c2.37,11.73,3.53,24.06,2.91,36.6
		c-0.1,2.08-0.26,4.15-0.47,6.24c-0.22,2.17-0.49,4.35-0.82,6.53c-0.13,0.85-0.23,1.7-0.38,2.55c-0.3-0.56-0.63-1.16-0.95-1.75
		c-0.09-0.17-0.18-0.34-0.28-0.52c-0.69-1.29-1.43-2.66-2.18-4.1c-0.78-1.47-1.58-3.01-2.41-4.62c-0.73-1.42-1.48-2.89-2.24-4.41
		c-1.68-3.33-3.43-6.9-5.21-10.66c-1.72-3.62-3.47-7.42-5.21-11.36C206.41,261.44,193.25,223.03,196.4,193.81z M305.29,288.29
		c3.94-7.22,7.35-14.49,10.23-21.64c7.18-3.93,14.86-7.2,23.03-9.5c-5.53,7.5-13.75,18.15-23.58,29.33
		C311.74,286.99,308.51,287.6,305.29,288.29z M237.07,428.63h-6.84v-71.1c0.14,0,0.29,0.01,0.43,0.01c2.2,0,4.32-0.11,6.4-0.28
		V428.63z"/>
</g>
</svg>
