<?xml version="1.0" encoding="utf-8"?>
<!-- Generator: Adobe Illustrator 25.1.0, SVG Export Plug-In . SVG Version: 6.00 Build 0)  -->
<svg version="1.1" id="Layer_1" xmlns="http://www.w3.org/2000/svg" xmlns:xlink="http://www.w3.org/1999/xlink" x="0px" y="0px"
	 viewBox="0 0 450 450" style="enable-background:new 0 0 450 450;" xml:space="preserve">
<style type="text/css">
	.st0{fill:#365072;}
</style>
<g>
	<path class="st0" d="M378.19,300.08H261.01v-17.87v-87.62V60.19c0-0.36-0.04-0.7-0.1-1.04c-0.07-0.34-0.17-0.67-0.31-1l-0.01-0.02
		L242.06,14.5c-0.81-1.92-2.71-3.18-4.8-3.18H90.34c-2.09,0-3.98,1.25-4.8,3.18L67.03,58.14l-0.01,0.02c-0.14,0.32-0.24,0.66-0.31,1
		c-0.07,0.34-0.1,0.68-0.1,1.04v28.18v87.62v238.94c0,13.09,10.65,23.74,23.74,23.74h80.77h66.15h140.92c2.88,0,5.21-2.33,5.21-5.21
		V305.29C383.4,302.42,381.06,300.08,378.19,300.08z M372.98,428.25H256.91h-6.77h-12.87h-11.69V310.5h25.01h5.21h5.21h111.97
		V428.25z M78.09,420.14h33.19c0.44,3.19,2.34,5.88,5.28,8.11H90.34C84.85,428.25,80.12,424.91,78.09,420.14z M233.81,21.75
		l14.11,33.23H79.69l14.11-33.23H233.81z M180.5,406.27v5.67v0.18v1.4h-3.98h-0.19h-0.22h-4.99h-1.58h-3.64h-33.37h-6.97h-3.98v-1.4
		v-0.18v-2.22v-3.46v-0.18v-1.4h3.98h6.97h33.37h3.71h1.5h5.21h0.19h3.98v1.4V406.27z M165.91,394.26h-33.37
		c4.71-1.21,10.88-2.11,18.51-2.11c5.79,0,10.75,0.52,14.86,1.3c1.31,0.25,2.51,0.52,3.64,0.81H165.91z M165.91,423.94h3.71
		c-1.15,0.29-2.38,0.57-3.71,0.82c-4.12,0.77-9.08,1.29-14.86,1.29c-7.62,0-13.8-0.91-18.51-2.11H165.91z M77.02,97.4l173.56,100.2
		v75.59L77.02,172.98V97.4z M250.59,65.4v120.16L77.02,85.36V65.4H250.59z M77.02,185.02l173.56,100.2v14.86h-79.47
		c-2.88,0-5.21,2.33-5.21,5.21v77.58c-4.8-0.77-9.88-1.15-14.86-1.15c-19.2,0-39.87,5.55-39.87,17.75v10.25H77.02V185.02z
		 M190.92,418.73v-19.26c0-6.58-6.03-11.22-14.59-14.11V310.5h38.82v117.75h-29.62C188.9,425.7,190.92,422.54,190.92,418.73z"/>
	<path class="st0" d="M343.06,337.96c2.38,2.04,6.49,2.54,9.49,2.54c3.03,0,2.52-1.74,0.85-3.18c-2.38-2.04-6.49-2.54-9.49-2.54
		C340.88,334.78,341.39,336.53,343.06,337.96z"/>
	<path class="st0" d="M255.8,333.01c-0.22-0.02-0.43-0.05-0.66-0.05c-2.18,0-3.65,0.54-4.56,1.35c-1.56,1.4-1.38,3.6,0,5.35
		c1.08,1.37,2.9,2.44,5.21,2.61c0.22,0.02,0.43,0.05,0.66,0.05c2.18,0,3.65-0.54,4.55-1.35c1.56-1.4,1.39-3.6,0-5.36
		C259.93,334.25,258.11,333.19,255.8,333.01z"/>
	<path class="st0" d="M317.91,364.64c9.14,0,6.18-9.37-1.32-9.37C307.46,355.28,310.42,364.64,317.91,364.64z"/>
	<path class="st0" d="M353.4,404.94c-2.38-2.03-6.5-2.54-9.49-2.54c-3.02,0-2.52,1.72-0.84,3.15c2.38,2.03,6.5,2.54,9.49,2.54
		C355.57,408.09,355.07,406.37,353.4,404.94z"/>
	<path class="st0" d="M282.4,387.24c2.38,2.03,6.5,2.54,9.49,2.54c3.02,0,2.52-1.72,0.84-3.15c-2.38-2.03-6.5-2.54-9.49-2.54
		C280.22,384.09,280.72,385.81,282.4,387.24z"/>
	<path class="st0" d="M190.55,337.95c2.38,2.03,6.5,2.54,9.49,2.54c3.02,0,2.52-1.72,0.84-3.15c-2.38-2.03-6.5-2.54-9.49-2.54
		C188.37,334.8,188.88,336.52,190.55,337.95z"/>
	<path class="st0" d="M258.8,402.46c0.43,0.88,1.24,1.55,2.21,2.09c2.04,1.12,4.83,1.56,6.66,1.56c2.5,0,4.94-1.19,3.62-3.88
		c-1.34-2.74-6.18-3.65-8.87-3.65c-0.48,0-0.96,0.05-1.41,0.14C259.12,399.1,257.74,400.29,258.8,402.46z"/>
	<path class="st0" d="M193.1,383.18c-2.5,0-4.94,1.19-3.62,3.88c1.34,2.74,6.18,3.65,8.87,3.65c2.5,0,4.94-1.19,3.62-3.88
		C200.62,384.09,195.78,383.18,193.1,383.18z"/>
</g>
</svg>
