<svg height='100px' width='100px'  fill="#365072" xmlns="http://www.w3.org/2000/svg" xmlns:xlink="http://www.w3.org/1999/xlink" version="1.1" x="0px" y="0px" viewBox="0 0 125 125" enable-background="new 0 0 100 100" xml:space="preserve"><g><rect x="47.615" y="48.166" transform="matrix(0.9126 0.4089 -0.4089 0.9126 26.0951 -22.0391)" width="33.939" height="3.671"></rect></g><g><path d="M37.998,76.625c-5.543,0-10.499-3.093-12.931-8.073L6.169,29.902c-3.484-7.122-0.524-15.751,6.598-19.239   c1.988-0.972,4.112-1.464,6.308-1.464c5.543,0,10.499,3.093,12.935,8.069l18.897,38.653c1.69,3.452,1.935,7.355,0.686,10.99   c-1.249,3.635-3.835,6.563-7.287,8.249C42.318,76.133,40.194,76.625,37.998,76.625z M19.075,12.874   c-1.632,0-3.211,0.366-4.693,1.091c-5.303,2.598-7.506,9.02-4.912,14.323l18.898,38.65c1.812,3.71,5.5,6.014,9.63,6.014   c1.632,0,3.211-0.366,4.693-1.091c2.569-1.256,4.496-3.438,5.425-6.14c0.929-2.709,0.75-5.615-0.51-8.184L28.708,18.883   C26.896,15.177,23.205,12.874,19.075,12.874z"></path></g><g><path d="M52.68,95.372L52.68,95.372c-2.655,0-5.242-0.557-7.682-1.65c-7.492-3.354-11.876-11.13-10.915-19.354l0.226-1.92   l1.909,0.323c2.185,0.369,4.467,0.071,6.473-0.911c2.569-1.256,4.496-3.438,5.425-6.14c0.929-2.709,0.75-5.615-0.51-8.184   l-3.656-7.481l15.374-34.301C62.346,8.995,69.088,4.628,76.5,4.628c2.652,0,5.235,0.556,7.676,1.647   c9.465,4.248,13.713,15.399,9.476,24.857l-23.8,53.113C66.824,91.006,60.082,95.372,52.68,95.372z M37.628,76.596   c-0.007,5.932,3.401,11.324,8.87,13.774c1.966,0.879,4.047,1.328,6.182,1.328c5.956,0,11.381-3.517,13.821-8.952L90.3,29.633   c3.409-7.614-0.011-16.587-7.628-20.006c-1.963-0.875-4.04-1.324-6.172-1.324c-5.967,0-11.391,3.516-13.824,8.952L48.005,49.991   l2.902,5.931c1.69,3.452,1.935,7.355,0.686,10.99c-1.249,3.635-3.835,6.563-7.287,8.249C42.217,76.184,39.889,76.65,37.628,76.596z   "></path></g><g><rect x="26.703" y="30.369" transform="matrix(0.4394 0.8983 -0.8983 0.4394 54.5492 -1.5792)" width="3.674" height="25.089"></rect></g></svg>
