<?xml version="1.0" encoding="utf-8"?>
<!-- Generator: Adobe Illustrator 25.1.0, SVG Export Plug-In . SVG Version: 6.00 Build 0)  -->
<svg version="1.1" id="Layer_1" xmlns="http://www.w3.org/2000/svg" xmlns:xlink="http://www.w3.org/1999/xlink" x="0px" y="0px"
	 viewBox="0 0 450 450" style="enable-background:new 0 0 450 450;" xml:space="preserve">
<style type="text/css">
	.st0{fill:#365072;}
</style>
<g>
	<path class="st0" d="M225,9C105.71,9,9,105.71,9,225c0,119.29,96.71,216,216,216c119.29,0,216-96.71,216-216
		C441,105.71,344.29,9,225,9z M225,414c-104.21,0-189-84.79-189-189S120.79,36,225,36s189,84.79,189,189S329.22,414,225,414z"/>
	<path class="st0" d="M320.87,268.14c-8.52-3.79-18.02-5.05-27.78-4.58c9.27-11.13,15.41-20.29,16.01-21.19
		c0.74-1.11,0.76-2.55,0.04-3.67s-2.01-1.73-3.33-1.54c-6.63,0.95-12.95,2.91-18.92,5.55c3.44-10.69,5-20.32,4.88-26.95
		c-0.06-3.1-0.48-7.4-3.52-8.92c-1.59-0.8-3.44-0.59-5.07,0.57c-0.35,0.25-0.69,0.51-1.03,0.77c3.27-12.76,3.11-25.11,1.38-31.77
		c-0.57-2.18-1.63-5.16-4.35-5.79c-1.53-0.35-3.09,0.19-4.2,1.48c-3.19,3.69-5.72,8.47-7.74,13.74c-0.17-0.74-0.31-1.46-0.4-2.17
		c-0.28-2.24-1.04-4.22-1.78-6.15c-0.58-1.52-1.14-2.95-1.34-4.29c-0.22-1.44-0.21-3-0.21-4.66c0.01-1.99,0.01-4.05-0.37-6.15
		c-0.39-2.13-1.02-4.11-1.62-6.03c-0.48-1.52-0.94-2.96-1.25-4.38l-0.67-3.17c-0.52-2.5-1.03-4.96-1.65-7.36
		c-0.59-2.31-1.73-4.31-2.75-6.08c-0.77-1.35-1.51-2.62-1.86-3.82c-0.43-1.42-0.66-2.94-0.9-4.54c-0.3-1.99-0.6-4.05-1.34-6.06
		c-0.46-1.27-0.58-2.83-0.71-4.48c-0.17-2.17-0.34-4.42-1.31-6.53c-1.27-2.78-3.75-4.47-5.75-5.82c-1.13-0.76-2.29-1.55-2.69-2.18
		c-0.71-1.15-1.29-2.35-1.85-3.52c-1.04-2.16-2.11-4.4-4-6.14c-3.3-3.04-6.72-6.18-11.32-6.18c-3.96,0-8.09,1.88-11.97,5.44
		c-1.89,1.73-2.95,4.04-3.98,6.27c-0.57,1.24-1.16,2.52-1.88,3.68c-0.43,0.69-1.56,1.53-2.66,2.35c-1.9,1.41-4.27,3.17-5.51,5.91
		c-1.45,3.18-2.82,6.83-4.09,10.3c-0.72,1.99-1.15,4.08-1.56,6.1c-0.32,1.59-0.63,3.1-1.07,4.55c-0.71,2.35-1.31,4.82-1.89,7.21
		c-0.27,1.1-0.54,2.2-0.82,3.3c-0.6,2.33-0.3,4.69-0.03,6.77c0.21,1.62,0.4,3.15,0.15,4.33c-0.22,1.03-1.06,2.27-1.95,3.58
		c-1.23,1.81-2.62,3.87-3.08,6.39c-0.27,1.46-0.61,2.93-0.94,4.4c-0.46,2-0.93,4.07-1.26,6.19c-0.35,2.31,0.02,4.58,0.34,6.58
		c0.26,1.61,0.51,3.13,0.35,4.39c-0.18,1.45-0.58,2.95-1,4.54c-0.51,1.92-1.04,3.91-1.25,6.03c-0.22,2.32,0.23,4.56,0.63,6.54
		c0.32,1.58,0.62,3.07,0.54,4.33c-0.08,1.24-0.64,2.67-1.23,4.18c-0.74,1.91-1.59,4.08-1.67,6.45c-0.05,1.39-0.13,2.77-0.21,4.15
		c-0.1,1.67-0.17,3.32-0.21,4.96c-7.17-5.47-14-9.31-19.12-11.13c-2.7-0.96-6.58-1.99-8.95,0.19c-1.26,1.17-1.71,2.89-1.21,4.73
		c4.61,17.17,21.1,34.99,36,48.24c0.12,0.57,0.25,1.13,0.37,1.67c-18.61-5.85-38.72-7.95-55.19-0.63c-1.16,0.52-1.93,1.64-2,2.9
		c-0.07,1.27,0.58,2.46,1.68,3.1c2.34,1.36,44.66,25.7,79.85,33.83c0.6,0.71,1.44,1.23,2.44,1.49c3.11,0.78,6.55,1.14,10.24,1.13
		c0.1,0,0.2,0,0.3,0V360c0,1.86,1.51,3.38,3.38,3.38h11.18c1.86,0,3.38-1.51,3.38-3.38v-50.76c0.72-0.29,1.32-0.73,1.78-1.27
		c35.18-8.13,77.51-32.47,79.85-33.82c1.1-0.64,1.74-1.83,1.68-3.1C322.8,269.78,322.03,268.65,320.87,268.14z M260.18,295.28
		c-2.6,0.94-5.21,1.83-7.8,2.66c1.11-1.04,2.17-2.2,3.09-3.55c0.02-0.02,0.03-0.04,0.05-0.07c0.22-0.33,0.41-0.67,0.58-1.01
		c3.99-3.78,7.62-7.87,10.91-12.16c1.82-2.37,3.54-4.8,5.14-7.27c1.11-0.3,2.21-0.59,3.3-0.86c1.99-0.48,3.94-0.9,5.87-1.25
		c1.83-0.34,3.62-0.62,5.39-0.85c9.05-1.16,17.34-0.84,24.53,1.01C301.16,277.38,280.82,287.82,260.18,295.28z M195.88,297.38
		c-22.62-7.47-46.05-19.47-57.13-25.45c12.9-3.31,29.27-1.75,47.4,4.53c0.74,0.26,1.49,0.54,2.24,0.81
		c1.84,0.67,3.69,1.38,5.56,2.14c0.12,0.05,0.24,0.09,0.36,0.14c4.38,1.81,8.54,3.75,12.42,5.73c2.06,1.47,3.38,2.37,3.7,2.58
		c0.57,0.38,1.23,0.57,1.88,0.57c0.09,0,0.18-0.01,0.27-0.02c2.27,1.28,4.4,2.55,6.39,3.79c0.92,0.58,1.81,1.15,2.67,1.71
		c0.13,0.08,0.25,0.17,0.38,0.25c1.05,0.69,2.04,1.37,2.98,2.03c0,0,0.01,0.01,0.01,0.01c1.22,0.85,2.35,1.68,3.38,2.46
		c0.72,0.55,1.39,1.07,2.01,1.58c0.22,0.39,0.43,0.74,0.61,1.05c0.5,0.85,0.84,1.42,1,1.68c0.02,0.03,0.04,0.06,0.05,0.09
		c0.13,0.22,0.3,0.42,0.47,0.6c-1.33,0.13-2.71,0.2-4.14,0.2c-1.1,0-2.23-0.04-3.38-0.11c0,0-0.01,0-0.01,0
		c-1.1-0.07-2.22-0.17-3.37-0.29c-1.61-0.18-3.25-0.4-4.93-0.69c-1.28-0.22-2.58-0.47-3.9-0.75c-1.2-0.25-2.41-0.53-3.64-0.82
		c-2.39-0.58-4.82-1.23-7.27-1.95C199.9,298.67,197.9,298.04,195.88,297.38z M182.06,256.11c-11.29-10.8-22.25-23.66-26.65-35.99
		c4.41,1.54,12.88,6.29,21.83,13.75c1.56,1.3,3.14,2.68,4.71,4.15c1.08,1,2.15,2.04,3.21,3.12c9.31,9.41,18.02,21.62,22.06,36.11
		c-4.45-3.31-10.59-8.1-17.14-13.82c-2.07-1.81-4.18-3.71-6.3-5.69C183.21,257.21,182.63,256.66,182.06,256.11z M183.94,226.76
		c0-2.06,0.12-4.16,0.24-6.27c0.08-1.43,0.17-2.87,0.21-4.3c0.04-1.22,0.61-2.69,1.22-4.23c0.71-1.83,1.52-3.91,1.67-6.18
		c0.14-2.16-0.26-4.17-0.66-6.11c-0.33-1.66-0.65-3.23-0.52-4.56c0.15-1.57,0.59-3.21,1.05-4.94c0.46-1.74,0.94-3.54,1.18-5.45
		c0.28-2.21-0.08-4.39-0.39-6.3c-0.27-1.66-0.52-3.23-0.33-4.48c0.29-1.87,0.71-3.73,1.17-5.7c0.36-1.57,0.72-3.13,1-4.69
		c0.21-1.12,1.09-2.43,2.03-3.82c1.16-1.7,2.46-3.64,2.96-5.94c0.5-2.31,0.21-4.6-0.05-6.61c-0.21-1.62-0.4-3.16-0.13-4.24
		c0.29-1.13,0.56-2.26,0.83-3.38c0.57-2.34,1.13-4.65,1.8-6.85c0.53-1.75,0.88-3.49,1.22-5.16c0.38-1.86,0.73-3.62,1.28-5.13
		c1.22-3.34,2.53-6.85,3.88-9.81c0.52-1.15,1.92-2.19,3.4-3.29c1.61-1.19,3.26-2.43,4.37-4.2c0.94-1.52,1.66-3.06,2.28-4.42
		c0.82-1.78,1.53-3.31,2.41-4.13c2.58-2.36,5.21-3.67,7.41-3.67c1.97,0,4.29,2.13,6.75,4.39c0.93,0.86,1.65,2.35,2.48,4.09
		c0.61,1.27,1.3,2.71,2.21,4.16c1.15,1.85,2.92,3.05,4.63,4.21c1.43,0.97,2.91,1.98,3.4,3.04c0.47,1.03,0.59,2.6,0.72,4.25
		c0.15,1.94,0.32,4.13,1.1,6.27c0.5,1.38,0.74,3.02,1,4.75c0.26,1.77,0.54,3.61,1.11,5.5c0.58,1.93,1.54,3.6,2.47,5.22
		c0.87,1.52,1.7,2.96,2.06,4.39c0.59,2.3,1.08,4.67,1.58,7.06l0.68,3.22c0.38,1.72,0.9,3.38,1.41,4.98c0.57,1.8,1.11,3.51,1.42,5.22
		c0.27,1.49,0.26,3.15,0.26,4.91c-0.01,1.84-0.01,3.74,0.28,5.7c0.31,2.05,1.03,3.9,1.71,5.69c0.62,1.61,1.21,3.14,1.39,4.55
		c0.23,1.9,0.71,3.71,1.17,5.45c0.46,1.75,0.89,3.4,1.04,4.99c0.14,1.42-0.11,3.04-0.37,4.76c-0.29,1.9-0.59,3.87-0.45,5.94
		c0.05,0.78,0.08,1.56,0.11,2.35c0.07,1.58,0.12,3.15,0.16,4.71c0.03,1.17,0.06,2.34,0.1,3.51c0.07,2,0.44,3.88,0.81,5.69
		c0.19,0.94,0.37,1.86,0.49,2.74c0.11,0.73,0.18,1.45,0.18,2.13c0,1.06-0.11,2.13-0.25,3.22c-0.08,0.13-0.16,0.26-0.25,0.39
		c-1.2,1.9-2.37,3.84-3.5,5.82c-7.63,13.34-13.6,28.2-17.85,40.47c-0.08-6.43-0.78-12.79-1.96-18.95c-0.67-3.51-1.48-6.95-2.43-10.3
		c-5.99-21.28-16.87-38.93-25.03-46.81c-2.21-2.13-5.52-4.85-8.73-3.79c-1.7,0.56-2.86,2.02-3.19,4
		c-4.28,25.62,10.58,61.33,21.45,83.09c0.51,1.02,1.01,2,1.5,2.96c-0.49-0.31-0.99-0.62-1.5-0.93c-2.02-1.24-4.15-2.49-6.39-3.73
		c-3.8-21.19-17.4-39.2-31.29-51.57C183.94,229.32,183.94,228.03,183.94,226.76z M271.42,218.59c-0.68,0.81-1.35,1.62-2.01,2.47
		c-0.03-0.16-0.06-0.31-0.09-0.47c-0.32-1.62-0.63-3.16-0.68-4.61c-0.04-1.14-0.06-2.29-0.09-3.44c-0.03-1.36-0.07-2.72-0.12-4.09
		c1.61-10.07,4.35-20.82,9.01-28.31C278.61,187.53,278.46,203.98,271.42,218.59z M284.99,214.52c0.35,5.35-1.59,18.24-7.13,32.86
		c-0.65,1.71-1.35,3.44-2.1,5.18c-0.87,2.02-1.8,4.06-2.81,6.11c-1.55,3.16-3.28,6.32-5.18,9.45c-0.9,1.48-1.85,2.95-2.83,4.41
		c-1.09,1.61-2.23,3.21-3.43,4.77c-0.31,0.41-0.64,0.81-0.96,1.22c-1.47,1.86-3.02,3.69-4.65,5.46c-1.75,1.9-3.59,3.74-5.53,5.5
		c-2.45,2.23-5.04,4.34-7.8,6.28c0.07-0.23,0.14-0.48,0.21-0.72c0.92-3.15,2.09-6.97,3.51-11.27c0.37-1.11,0.74-2.24,1.14-3.4
		c0.12-0.34,0.24-0.7,0.36-1.05c0.5-1.43,1.01-2.89,1.55-4.39c0.56-1.55,1.15-3.14,1.77-4.75c2.56-6.72,5.55-13.86,8.96-20.83
		c1.53-3.13,3.14-6.22,4.83-9.22c0.68-1.2,1.37-2.38,2.07-3.55c0.85-1.41,1.71-2.8,2.59-4.15c2.28-3.49,4.68-6.77,7.2-9.74
		C279.39,219.6,282.13,216.83,284.99,214.52z M206.48,204.56c5.26,4.65,16.83,21.29,23.45,42.7c0.34,1.11,0.67,2.24,0.99,3.37
		c0.31,1.11,0.6,2.24,0.88,3.38c0.37,1.49,0.71,2.99,1.01,4.51c1.53,7.59,2.29,15.58,1.88,23.7c-0.07,1.34-0.17,2.69-0.3,4.04
		c-0.14,1.41-0.32,2.82-0.53,4.23c-0.08,0.55-0.15,1.1-0.25,1.65c-0.2-0.36-0.41-0.75-0.62-1.14c-0.06-0.11-0.12-0.22-0.18-0.33
		c-0.45-0.83-0.92-1.72-1.41-2.65c-0.5-0.95-1.02-1.95-1.56-2.99c-0.47-0.92-0.96-1.87-1.45-2.85c-1.09-2.16-2.22-4.47-3.38-6.9
		c-1.11-2.34-2.24-4.81-3.37-7.35C212.96,248.36,204.44,223.48,206.48,204.56z M277,265.75c2.55-4.67,4.76-9.39,6.62-14.01
		c4.65-2.54,9.62-4.67,14.91-6.15c-3.58,4.86-8.9,11.75-15.27,19C281.17,264.9,279.08,265.29,277,265.75z M232.81,356.62h-4.43
		v-46.04c0.09,0,0.19,0,0.28,0c1.42,0,2.8-0.07,4.15-0.18V356.62z"/>
</g>
</svg>
