<svg width="450" height="450" viewBox="0 0 450 450" fill="none" xmlns="http://www.w3.org/2000/svg">
<path d="M302.472 173.655L288.013 188.109C280.179 195.943 277.911 207.243 281.16 217.116L267.336 230.94C262.417 227.016 257.035 223.591 251.217 220.806V67.4144L265.563 53.0774H164.088L178.447 67.4144V220.806C149.292 234.756 130.612 264.24 130.612 296.734C130.612 329.593 149.557 358.042 177.052 371.925L168.718 396.922H260.932L252.594 371.916C280.098 358.033 299.043 329.589 299.043 296.734C299.043 279.747 293.899 263.605 284.859 250.056L299.614 235.305C302.377 236.164 305.239 236.61 308.106 236.61C315.382 236.61 322.659 233.842 328.198 228.303L342.657 213.844L302.472 173.655ZM267.723 243.279C269.608 245.142 271.354 247.122 273.024 249.165L246.834 275.355L241.24 269.761L267.723 243.279ZM248.445 387.922H181.21L185.337 375.543C194.526 378.994 204.43 380.974 214.812 380.974C225.207 380.974 235.12 378.994 244.323 375.534L248.445 387.922ZM214.807 371.974C174.861 371.974 142.186 340.627 139.842 301.234H289.818C287.473 340.623 254.781 371.974 214.807 371.974ZM289.881 292.234H139.779C141.457 264.141 158.715 239.175 184.747 227.821L187.447 226.642V225V223.695V63.6839L185.841 62.0774H243.823L242.217 63.6839V223.695V225V226.642L244.921 227.821C250.726 230.35 256.063 233.595 260.919 237.361L228.519 269.761L246.838 288.081L278.37 256.549C285.057 267.111 289.111 279.337 289.881 292.234ZM279.441 242.752C277.749 240.727 275.944 238.801 274.063 236.938L285.552 225.45C286.308 226.435 287.109 227.398 288.013 228.303C289.012 229.302 290.088 230.179 291.195 231.003L279.441 242.752ZM321.835 221.935C314.262 229.504 301.945 229.495 294.372 221.935C286.803 214.362 286.803 202.045 294.372 194.472L302.467 186.381L329.931 213.84L321.835 221.935Z" fill="#365072"/>
</svg>
