<?xml version="1.0" encoding="utf-8"?>
<!-- Generator: Adobe Illustrator 25.1.0, SVG Export Plug-In . SVG Version: 6.00 Build 0)  -->
<svg version="1.1" id="Layer_1" xmlns="http://www.w3.org/2000/svg" xmlns:xlink="http://www.w3.org/1999/xlink" x="0px" y="0px"
	 viewBox="0 0 450 450" style="enable-background:new 0 0 450 450;" xml:space="preserve">
<style type="text/css">
	.st0{fill:#365072;}
</style>
<g>
	<path class="st0" d="M225,9C105.71,9,9,105.71,9,225s96.71,216,216,216c119.29,0,216-96.71,216-216S344.29,9,225,9z M225,414
		c-104.21,0-189-84.79-189-189S120.79,36,225,36s189,84.79,189,189S329.21,414,225,414z"/>
	<path class="st0" d="M324.2,273.62h-75.88v-11.57v-56.74v-87.04c0-0.23-0.02-0.46-0.07-0.67c-0.05-0.22-0.11-0.44-0.2-0.65
		l-0.01-0.01l-11.99-28.26c-0.53-1.25-1.75-2.06-3.11-2.06H137.8c-1.35,0-2.58,0.81-3.11,2.06l-11.99,28.26l-0.01,0.01
		c-0.09,0.21-0.16,0.42-0.2,0.65c-0.04,0.22-0.07,0.44-0.07,0.67v18.25v56.74V348c0,8.48,6.9,15.38,15.38,15.38h52.31h42.84h91.26
		c1.86,0,3.38-1.51,3.38-3.38v-83C327.58,275.13,326.07,273.62,324.2,273.62z M320.83,356.62h-75.16h-4.39h-8.33h-7.57v-76.25h16.2
		h3.38h3.37h72.51V356.62z M129.86,351.37h21.49c0.28,2.06,1.51,3.81,3.42,5.25H137.8C134.24,356.62,131.18,354.46,129.86,351.37z
		 M230.71,93.37l9.14,21.52H130.9l9.14-21.52H230.71z M196.18,342.39v3.67v0.12v0.9h-2.58h-0.12h-0.14h-3.23h-1.02h-2.36h-21.61
		h-4.51h-2.58v-0.9v-0.12v-1.44v-2.24v-0.12v-0.9h2.58h4.51h21.61h2.4h0.97h3.37h0.12h2.58v0.9V342.39z M186.73,334.61h-21.61
		c3.05-0.78,7.05-1.37,11.99-1.37c3.75,0,6.96,0.34,9.62,0.84c0.85,0.16,1.62,0.34,2.36,0.53H186.73z M186.73,353.83h2.4
		c-0.75,0.19-1.54,0.37-2.4,0.53c-2.67,0.5-5.88,0.83-9.62,0.83c-4.94,0-8.93-0.59-11.98-1.37H186.73z M129.17,142.36l112.4,64.89
		v48.95l-112.4-64.89V142.36z M241.57,121.65v77.82l-112.4-64.89v-12.92H241.57z M129.17,199.11L241.57,264v9.62h-51.46
		c-1.86,0-3.38,1.51-3.38,3.38v50.24c-3.11-0.5-6.4-0.74-9.62-0.74c-12.44,0-25.82,3.6-25.82,11.49v6.64h-22.11V199.11z
		 M202.93,350.46v-12.47c0-4.26-3.9-7.27-9.45-9.14v-48.48h25.14v76.25h-19.18C201.62,354.97,202.93,352.93,202.93,350.46z"/>
	<path class="st0" d="M301.45,298.15c1.54,1.32,4.21,1.65,6.15,1.65c1.96,0,1.63-1.13,0.55-2.06c-1.54-1.32-4.21-1.65-6.15-1.65
		C300.04,296.1,300.37,297.22,301.45,298.15z"/>
	<path class="st0" d="M244.94,294.95c-0.14-0.01-0.28-0.03-0.43-0.03c-1.41,0-2.36,0.35-2.95,0.88c-1.01,0.9-0.9,2.33,0,3.46
		c0.7,0.89,1.88,1.58,3.38,1.69c0.14,0.01,0.28,0.03,0.43,0.03c1.41,0,2.36-0.35,2.95-0.87c1.01-0.9,0.9-2.33,0-3.47
		C247.62,295.75,246.44,295.06,244.94,294.95z"/>
	<path class="st0" d="M285.17,315.43c5.92,0,4-6.07-0.85-6.07C278.4,309.37,280.32,315.43,285.17,315.43z"/>
	<path class="st0" d="M308.15,341.53c-1.54-1.32-4.21-1.65-6.15-1.65c-1.96,0-1.63,1.11-0.55,2.04c1.54,1.32,4.21,1.65,6.15,1.65
		C309.56,343.57,309.23,342.46,308.15,341.53z"/>
	<path class="st0" d="M262.17,330.07c1.54,1.32,4.21,1.65,6.15,1.65c1.96,0,1.63-1.11,0.55-2.04c-1.54-1.32-4.21-1.65-6.15-1.65
		C260.76,328.03,261.09,329.14,262.17,330.07z"/>
	<path class="st0" d="M202.69,298.14c1.54,1.32,4.21,1.65,6.15,1.65c1.96,0,1.63-1.11,0.55-2.04c-1.54-1.32-4.21-1.65-6.15-1.65
		C201.28,296.1,201.61,297.22,202.69,298.14z"/>
	<path class="st0" d="M246.89,339.92c0.28,0.57,0.81,1.01,1.43,1.35c1.32,0.73,3.13,1.01,4.31,1.01c1.62,0,3.2-0.77,2.34-2.51
		c-0.87-1.77-4-2.36-5.74-2.36c-0.31,0-0.62,0.03-0.91,0.09C247.1,337.75,246.2,338.52,246.89,339.92z"/>
	<path class="st0" d="M204.34,327.43c-1.62,0-3.2,0.77-2.34,2.51c0.87,1.77,4,2.36,5.74,2.36c1.62,0,3.2-0.77,2.34-2.51
		C209.21,328.02,206.08,327.43,204.34,327.43z"/>
</g>
</svg>
